#!OML:ASF I:\Actors\actors\Patient Classification 2\Patient 1\Session 1\actor1.ASF
:FULLY-SPECIFIED
:DEGREES
658
root -0.835837 17.7425 5.84554 -5.26446 -2.84061 -5.89698
lowerback 14.8603 0.681241 0.849112
upperback 2.33627 1.0328 0.0165287
thorax -5.83704 0.487124 -0.665052
lowerneck -3.51498 -5.40791 -8.2433
upperneck 13.1234 -6.2796 -2.61935
head 4.72498 -3.61723 0.193396
rclavicle 9.74045e-015 -3.18055e-015
rhumerus -33.0451 -9.48427 -77.134
rradius 133.845
rwrist -42.1162
rhand -15.565 -40.289
rfingers 7.12502
rthumb 10.6197 -70.0007
lclavicle 9.74045e-015 -3.18055e-015
lhumerus -53.0669 -17.9856 106.787
lradius 104.077
lwrist 19.9995
lhand -8.61185 -15.7261
lfingers 7.12502
lthumb 17.32 13.5221
rfemur 26.71 -2.36104 20.8721
rtibia -22.6753
rfoot -3.98327 -14.2454
rtoes -4.1399
lfemur 30.4385 3.35898 -9.94372
ltibia -32.3443
lfoot 8.24822 15.5138
ltoes -19.2118
659
root -0.832006 17.7583 5.85491 -5.2524 -2.68051 -6.0067
lowerback 14.7486 0.67331 0.883896
upperback 2.31098 1.03047 0.0672215
thorax -5.80293 0.486038 -0.629295
lowerneck -3.77311 -5.64055 -7.88745
upperneck 12.8947 -6.58014 -2.82841
head 4.68474 -3.7537 0.0528518
rclavicle -2.60408e-014 7.15625e-015
rhumerus -33.238 -9.10758 -76.9871
rradius 133.696
rwrist -42.2164
rhand -15.4271 -40.3866
rfingers 7.12502
rthumb 10.7528 -70.0913
lclavicle -2.60408e-014 7.15625e-015
lhumerus -53.2223 -17.4648 106.845
lradius 103.801
lwrist 20.002
lhand -8.94473 -15.5361
lfingers 7.12502
lthumb 16.9996 13.74
rfemur 26.3979 -2.48126 20.962
rtibia -22.0109
rfoot -4.26667 -14.1159
rtoes -4.03589
lfemur 30.2691 3.18932 -9.86802
ltibia -32.0455
lfoot 8.03871 15.5667
ltoes -18.9369
660
root -0.831382 17.7808 5.8721 -5.24665 -2.51491 -6.04034
lowerback 14.5883 0.675842 0.894211
upperback 2.23569 1.03866 0.128337
thorax -5.79558 0.490419 -0.570509
lowerneck -3.6419 -5.75173 -7.16449
upperneck 11.8599 -6.76933 -3.38667
head 4.76072 -3.81143 -0.256429
rclavicle 9.93923e-017 3.18055e-015
rhumerus -33.3807 -8.85902 -76.95
rradius 133.516
rwrist -42.3901
rhand -15.3215 -40.5453
rfingers 7.12502
rthumb 10.8547 -70.2447
lclavicle 9.93923e-017 3.18055e-015
lhumerus -53.5754 -16.929 106.958
lradius 103.575
lwrist 20.1724
lhand -9.2311 -15.1484
lfingers 7.12502
lthumb 16.724 14.1513
rfemur 26.0555 -2.39879 21.0276
rtibia -21.209
rfoot -4.79915 -14.0918
rtoes -3.45718
lfemur 30.0588 2.88919 -9.89739
ltibia -31.5966
lfoot 7.68134 15.7337
ltoes -18.6165
661
root -0.833996 17.8081 5.89517 -5.20685 -2.39618 -6.0846
lowerback 14.3136 0.675435 0.936758
upperback 2.13737 1.0497 0.234794
thorax -5.7499 0.496199 -0.481217
lowerneck -3.66304 -5.78302 -6.65888
upperneck 11.3906 -6.83773 -3.68529
head 4.55421 -3.82422 -0.432882
rclavicle 2.98177e-016 5.56597e-015
rhumerus -33.446 -8.63802 -77.0666
rradius 133.317
rwrist -42.6213
rhand -15.4861 -40.3656
rfingers 7.12502
rthumb 10.6959 -70.0733
lclavicle 2.98177e-016 5.56597e-015
lhumerus -53.9805 -16.4314 107.072
lradius 103.436
lwrist 20.5053
lhand -9.45369 -14.9674
lfingers 7.12502
lthumb 16.5097 14.3502
rfemur 25.6758 -2.20889 21.1488
rtibia -20.3525
rfoot -5.3498 -14.1268
rtoes -3.21243
lfemur 29.7972 2.4932 -9.92447
ltibia -31.027
lfoot 7.14815 16.0459
ltoes -17.623
662
root -0.836542 17.8351 5.92192 -5.15573 -2.30664 -6.06188
lowerback 13.9407 0.663365 0.971369
upperback 2.05666 1.04385 0.366342
thorax -5.63193 0.494637 -0.356445
lowerneck -4.16814 -5.87045 -6.56227
upperneck 11.3804 -6.93863 -3.53389
head 4.65607 -3.86624 -0.422557
rclavicle 7.95139e-016 4.77083e-015
rhumerus -33.299 -8.66523 -77.1178
rradius 133.016
rwrist -42.2241
rhand -14.771 -41.6385
rfingers 7.12502
rthumb 11.3856 -71.3094
lclavicle 7.95139e-016 4.77083e-015
lhumerus -54.3517 -15.9878 107.195
lradius 103.371
lwrist 20.907
lhand -9.62528 -15.0929
lfingers 7.12502
lthumb 16.3445 14.2384
rfemur 25.2988 -1.9973 21.1942
rtibia -19.505
rfoot -5.93456 -14.1621
rtoes -2.80226
lfemur 29.5024 2.03227 -10.0507
ltibia -30.385
lfoot 6.54274 16.4484
ltoes -16.6077
663
root -0.838287 17.8584 5.94963 -5.09754 -2.25052 -5.95149
lowerback 13.5669 0.649792 1.04382
upperback 1.97082 1.03935 0.472889
thorax -5.51739 0.49269 -0.279995
lowerneck -4.72725 -5.95503 -6.47762
upperneck 11.3762 -7.03876 -3.31875
head 4.7752 -3.90521 -0.391324
rclavicle 7.15625e-015 4.77083e-015
rhumerus -33.0811 -8.66895 -77.3319
rradius 132.937
rwrist -42.1702
rhand -14.7053 -41.9147
rfingers 7.12502
rthumb 11.4489 -71.5821
lclavicle 7.15625e-015 4.77083e-015
lhumerus -54.7724 -15.6356 107.298
lradius 103.408
lwrist 21.2055
lhand -9.6304 -15.2952
lfingers 7.12502
lthumb 16.3395 14.0365
rfemur 24.9442 -1.68149 21.1503
rtibia -18.7218
rfoot -6.60508 -14.1976
rtoes -1.86874
lfemur 29.1787 1.58473 -10.2921
ltibia -29.7086
lfoot 6.00521 16.8189
ltoes -16.5454
664
root -0.841247 17.8774 5.97418 -5.02939 -2.2314 -5.82021
lowerback 13.2425 0.646019 1.16833
upperback 1.84646 1.05562 0.578995
thorax -5.46913 0.499339 -0.23826
lowerneck -5.04298 -5.95491 -6.29545
upperneck 11.197 -7.06079 -3.11724
head 4.77288 -3.89595 -0.362071
rclavicle 1.71452e-014 -4.77083e-015
rhumerus -32.9019 -8.66933 -77.6021
rradius 133.022
rwrist -42.2966
rhand -14.8739 -41.4265
rfingers 7.12502
rthumb 11.2864 -71.1029
lclavicle 1.71452e-014 -4.77083e-015
lhumerus -55.2406 -15.4221 107.391
lradius 103.469
lwrist 21.445
lhand -9.51409 -15.4449
lfingers 7.12502
lthumb 16.4515 13.8775
rfemur 24.6204 -1.32624 21.092
rtibia -18.0454
rfoot -7.14427 -14.2046
rtoes -1.34065
lfemur 28.8574 1.17704 -10.5449
ltibia -29.042
lfoot 5.49879 17.1094
ltoes -16.5838
665
root -0.845061 17.8923 5.99502 -4.98796 -2.2124 -5.62422
lowerback 12.9752 0.648676 1.27062
upperback 1.70387 1.07849 0.698982
thorax -5.47202 0.509366 -0.171464
lowerneck -5.20083 -5.97156 -6.08625
upperneck 10.9754 -7.12155 -2.92688
head 4.72152 -3.90347 -0.336659
rclavicle 1.49585e-014 1.43125e-014
rhumerus -32.7436 -8.63253 -77.8121
rradius 133.192
rwrist -42.5848
rhand -15.2067 -40.2834
rfingers 7.12502
rthumb 10.9654 -69.977
lclavicle 1.49585e-014 1.43125e-014
lhumerus -55.6895 -15.3583 107.512
lradius 103.513
lwrist 21.721
lhand -9.41824 -15.6592
lfingers 7.12502
lthumb 16.5438 13.6555
rfemur 24.3833 -1.10267 20.9289
rtibia -17.5013
rfoot -7.49286 -14.1292
rtoes -1.18859
lfemur 28.59 0.808255 -10.8495
ltibia -28.4377
lfoot 5.01945 17.3586
ltoes -16.3548
666
root -0.850635 17.9015 6.01174 -4.96357 -2.20042 -5.37904
lowerback 12.7899 0.662938 1.37258
upperback 1.54397 1.11866 0.828614
thorax -5.53837 0.527427 -0.0985072
lowerneck -5.43128 -6.05076 -5.9818
upperneck 10.9456 -7.25757 -2.62366
head 4.76828 -3.95166 -0.268877
rclavicle -1.0138e-014 -8.74653e-015
rhumerus -32.583 -8.73275 -77.9261
rradius 133.119
rwrist -42.3527
rhand -15.2022 -40.4308
rfingers 7.12502
rthumb 10.9697 -70.1242
lclavicle -1.0138e-014 -8.74653e-015
lhumerus -56.1278 -15.443 107.659
lradius 103.56
lwrist 21.965
lhand -9.28015 -15.9109
lfingers 7.12502
lthumb 16.6768 13.3927
rfemur 24.2407 -0.885221 20.724
rtibia -17.1205
rfoot -7.81096 -14.083
rtoes -1.08337
lfemur 28.3717 0.549437 -11.1761
ltibia -27.935
lfoot 4.65477 17.5313
ltoes -16.483
667
root -0.858327 17.9043 6.02254 -4.91901 -2.16412 -5.13979
lowerback 12.6413 0.671472 1.50424
upperback 1.38835 1.15712 0.978162
thorax -5.62036 0.544026 -0.021453
lowerneck -5.83401 -6.0893 -6.15956
upperneck 11.6284 -7.33702 -1.88094
head 4.61356 -3.97463 -0.0137347
rclavicle -3.08116e-015 1.07344e-014
rhumerus -32.3721 -8.76255 -78.1234
rradius 133.133
rwrist -42.4666
rhand -15.4657 -39.8303
rfingers 7.12502
rthumb 10.7155 -69.537
lclavicle -3.08116e-015 1.07344e-014
lhumerus -56.4421 -15.6646 107.787
lradius 103.544
lwrist 22.0342
lhand -9.10065 -16.0912
lfingers 7.12502
lthumb 16.8496 13.1977
rfemur 24.1389 -0.60929 20.5653
rtibia -16.9031
rfoot -8.17181 -14.1376
rtoes -1.20724
lfemur 28.1525 0.424323 -11.4499
ltibia -27.5349
lfoot 4.3605 17.4995
ltoes -16.665
